HIERARCHY
ROOT Hips
{
	OFFSET -3.958830 18.904000 13.208200
	CHANNELS 6 Xposition Yposition Zposition Zrotation Yrotation Xrotation 
	JOINT LHipJoint
	{
		OFFSET 0.000000 0.000000 0.000000
		CHANNELS 3 Zrotation Yrotation Xrotation
		JOINT LeftUpLeg
		{
			OFFSET 1.800000 -1.400000 0.085000
			CHANNELS 3 Zrotation Yrotation Xrotation
			JOINT LeftLeg
			{
				OFFSET 2.215000 -6.000000 0.000000
				CHANNELS 3 Zrotation Yrotation Xrotation
				JOINT LeftFoot
				{
					OFFSET 2.500000 -6.900000 0.000000
					CHANNELS 3 Zrotation Yrotation Xrotation
					JOINT LeftToeBase
					{
						OFFSET 0.200000 -0.500000 1.950000
						CHANNELS 3 Zrotation Yrotation Xrotation
						End Site
						{
							OFFSET 0.000000 0.000000 0.000000
						}
					}
				}
			}
		}
	}
	JOINT RHipJoint
	{
		OFFSET 0.000000 0.000000 0.000000
		CHANNELS 3 Zrotation Yrotation Xrotation
		JOINT RightUpLeg
		{
			OFFSET -1.800000 -1.400000 0.085000
			CHANNELS 3 Zrotation Yrotation Xrotation
			JOINT RightLeg
			{
				OFFSET -2.215000 -6.000000 0.000000
				CHANNELS 3 Zrotation Yrotation Xrotation
				JOINT RightFoot
				{
					OFFSET -2.500000 -6.900000 0.000000
					CHANNELS 3 Zrotation Yrotation Xrotation
					JOINT RightToeBase
					{
						OFFSET -0.200000 -0.500000 1.950000
						CHANNELS 3 Zrotation Yrotation Xrotation
						End Site
						{
							OFFSET 0.000000 0.000000 0.000000
						}
					}
				}
			}
		}
	}
	JOINT LowerBack
	{
		OFFSET 0.000000 0.000000 0.000000
		CHANNELS 3 Zrotation Yrotation Xrotation
		JOINT Spine
		{
			OFFSET -0.087000 1.940000 -0.288900
			CHANNELS 3 Zrotation Yrotation Xrotation
			JOINT Spine1
			{
				OFFSET 0.000000 1.950000 0.060000
				CHANNELS 3 Zrotation Yrotation Xrotation
				JOINT Neck
				{
					OFFSET 0.000000 0.000000 0.000000
					CHANNELS 3 Zrotation Yrotation Xrotation
					JOINT Neck1
					{
						OFFSET 0.000000 1.600000 0.340000
						CHANNELS 3 Zrotation Yrotation Xrotation
						JOINT Head
						{
							OFFSET 0.000000 1.667000 -0.240000
							CHANNELS 3 Zrotation Yrotation Xrotation
							End Site
							{
								OFFSET 0.000000 0.000000 0.000000
							}
						}
					}
				}
				JOINT LeftShoulder
				{
					OFFSET 0.000000 0.000000 0.000000
					CHANNELS 3 Zrotation Yrotation Xrotation
					JOINT LeftArm
					{
						OFFSET 2.700000 1.550000 -0.730000
						CHANNELS 3 Zrotation Yrotation Xrotation
						JOINT LeftForeArm
						{
							OFFSET 5.450000 0.000000 0.000000
							CHANNELS 3 Zrotation Yrotation Xrotation
							JOINT LeftHand
							{
								OFFSET 3.450000 0.000000 0.000000
								CHANNELS 3 Zrotation Yrotation Xrotation
								JOINT LeftHandIndex1
								{
									OFFSET 0.750000 0.000000 0.000000
									CHANNELS 3 Zrotation Yrotation Xrotation
									End Site
									{
										OFFSET 0.000000 0.000000 0.000000
									}
								}
							}
						}
					}
				}
				JOINT RightShoulder
				{
					OFFSET 0.000000 0.000000 0.000000
					CHANNELS 3 Zrotation Yrotation Xrotation
					JOINT RightArm
					{
						OFFSET -2.700000 1.550000 -0.730000
						CHANNELS 3 Zrotation Yrotation Xrotation
						JOINT RightForeArm
						{
							OFFSET -5.450000 0.000000 0.000000
							CHANNELS 3 Zrotation Yrotation Xrotation
							JOINT RightHand
							{
								OFFSET -3.450000 0.000000 0.000000
								CHANNELS 3 Zrotation Yrotation Xrotation
								JOINT RightHandIndex1
								{
									OFFSET -0.750000 0.000000 0.000000
									CHANNELS 3 Zrotation Yrotation Xrotation
									End Site
									{
										OFFSET 0.000000 0.000000 0.000000
									}
								}
							}
						}
					}
				}
			}
		}
	}
}
MOTION
Frames: 7
Frame Time: 0.016667
-3.812890 16.196090 -4.191750 -2.144447 14.920367 1.782720 -15.063490 11.496709 3.810276 5.195090 -3.515366 -34.441212 -1.770908 2.079661 -2.673195 -0.248290 1.906176 3.837605 -0.096020 -0.213100 -0.038870 18.532397 -10.705858 3.080784 -7.041740 -2.412491 9.051572 11.184340 -5.910506 0.853871 -0.672673 -5.285635 2.629666 -0.156810 0.139620 0.062030 -4.267818 0.030389 -7.929879 9.535748 8.033059 5.336704 -0.775418 8.545143 -4.174715 1.048687 -5.881872 -5.965955 -13.113726 7.578527 41.770033 0.039420 4.634400 3.161550 -31.387140 4.812235 -0.808504 -54.504377 10.763950 -9.529874 -9.647050 -11.215103 -0.615733 -3.804858 2.800123 0.156340 0.028110 -0.011640 0.022180 28.455808 2.987722 3.774132 53.450528 -5.409605 -8.710276 9.344231 14.723291 -0.052484 2.661069 -1.167311 -0.087170 0.032680 0.083160 -0.016120 
-3.767440 16.187000 -4.150960 -2.181300 15.107243 1.821138 -15.059068 11.512812 3.796643 4.847759 -3.602221 -34.270125 -1.780382 2.075253 -2.460222 -0.254688 1.868400 3.849055 -0.082900 -0.196060 -0.029260 18.533439 -10.727749 3.077974 -7.129389 -2.400590 9.224975 10.941343 -5.919439 1.025343 -0.680889 -5.291529 2.626199 -0.148720 0.126890 0.058830 -4.282638 0.043103 -7.914408 9.634495 8.071943 5.332600 -0.828284 8.592066 -4.303416 1.059531 -5.898777 -5.845852 -13.124276 7.461083 41.589318 0.083870 4.521700 2.650830 -31.464696 5.128989 -0.981416 -54.534728 10.715542 -9.521924 -9.480031 -11.205713 -0.618284 -3.794149 2.797794 0.161960 0.018040 -0.003230 0.023250 28.462288 2.670493 3.730527 53.453183 -5.675595 -8.832343 9.023684 14.944753 -0.072786 2.660079 -1.166363 -0.083260 0.032510 0.074380 -0.017640 
-3.693430 16.173670 -4.082870 -2.226310 15.121074 2.000521 -15.057047 11.527817 3.783567 4.612110 -3.667591 -33.870358 -2.378163 2.126521 -2.221370 -0.249384 1.874656 3.853680 -0.085100 -0.196270 -0.030920 18.530780 -10.772851 3.046199 -7.278484 -2.336364 9.378955 10.100690 -5.899714 1.535553 -0.671999 -5.287937 2.633884 -0.149770 0.129700 0.054370 -4.283752 0.086888 -7.863510 9.530075 8.201961 4.989759 -0.825518 8.666536 -4.295426 1.106358 -5.874853 -5.868092 -12.930276 7.274681 40.890507 -0.010430 4.536530 2.613830 -31.471393 5.030547 -0.945298 -54.655994 10.713232 -9.461426 -8.772675 -10.935389 -0.638497 -3.796719 2.793856 0.156290 0.020960 -0.008150 0.025930 28.409968 2.756779 3.849126 53.549489 -5.907711 -8.802972 8.646219 14.684622 -0.111912 2.664992 -1.168197 -0.084860 0.032000 0.069330 -0.015780 
-3.596590 16.172470 -3.991840 -2.356533 15.770559 1.985556 -15.049293 11.562760 3.743810 4.097860 -3.769356 -33.009704 -2.875488 2.142785 -2.107673 -0.253250 1.878239 3.856597 -0.090900 -0.205330 -0.036630 18.534318 -10.799388 3.050509 -7.249297 -2.401078 10.121647 9.331998 -5.876150 1.657185 -0.688675 -5.322722 2.624549 -0.155580 0.127660 0.053840 -4.315386 0.083603 -7.827796 9.750527 8.064142 4.571215 -0.875016 8.484121 -4.369756 1.112228 -5.998088 -5.981549 -13.247715 7.001979 40.932458 0.035600 4.040900 2.320540 -31.436182 5.049800 -0.888807 -54.777132 10.912674 -9.427890 -8.435817 -10.736899 -0.658529 -3.795897 2.779507 0.165280 0.014210 -0.004770 0.022950 28.366484 2.762628 4.022485 53.247588 -6.350609 -8.668479 8.820679 14.089709 -0.082363 2.667818 -1.149898 -0.086140 0.037560 0.077050 -0.016040 
-3.495920 16.174420 -3.900710 -2.394958 16.412541 2.077656 -15.056788 11.605659 3.699843 3.367905 -3.906852 -32.110342 -3.171579 2.143990 -1.961434 -0.248119 1.851789 3.874550 -0.085670 -0.192090 -0.039950 18.524156 -10.816002 3.053005 -7.262206 -2.421877 10.687710 8.685335 -5.838336 1.756971 -0.703389 -5.350853 2.621405 -0.151400 0.127380 0.050140 -4.302709 0.054320 -7.784032 9.595007 7.942227 4.146022 -0.865785 8.294700 -4.449883 1.140608 -5.991919 -6.017858 -13.207593 6.948223 40.668835 0.298010 3.913010 2.084980 -31.642327 4.929551 -0.867911 -54.636011 10.863523 -9.197695 -7.837327 -10.221554 -0.666614 -3.791302 2.776061 0.163660 0.011170 -0.000690 0.029840 28.573151 2.786467 4.151382 52.870854 -6.718268 -8.538595 8.868738 13.749404 -0.077825 2.670891 -1.147627 -0.082420 0.041060 0.069020 -0.009890 
-3.391230 16.187330 -3.806710 -2.447314 16.886570 2.136478 -15.057169 11.665218 3.691784 3.049936 -3.964325 -31.130929 -4.001437 2.200095 -1.998258 -0.233130 1.907168 3.858758 -0.105790 -0.218860 -0.053940 18.511067 -10.846146 3.023368 -7.373106 -2.397657 10.935219 8.119763 -5.900911 2.550402 -0.696700 -5.358679 2.617213 -0.169640 0.133900 0.055170 -4.299659 -0.003688 -7.765538 9.666152 7.741214 3.705049 -1.068978 8.044037 -4.521269 1.245890 -6.020461 -6.434226 -13.355906 7.072353 40.812666 0.462350 3.908500 2.546840 -32.045620 4.041334 -0.533034 -54.377065 11.068994 -8.915036 -7.361584 -9.369735 -0.685163 -3.798875 2.780911 0.163380 0.013400 -0.004980 0.022920 28.862974 3.574367 4.596305 52.809819 -7.181283 -8.358003 8.845216 12.885707 -0.071996 2.680443 -1.135299 -0.082500 0.034940 0.083890 -0.008760 
-3.277990 16.201900 -3.710370 -2.452023 17.108350 2.248191 -15.054435 11.734837 3.674094 2.529802 -4.015493 -29.970802 -4.393272 2.189639 -2.299645 -0.223787 1.942059 3.855775 -0.115490 -0.235060 -0.058980 18.502834 -10.881030 2.970995 -7.667704 -2.282137 10.964608 7.506843 -5.958127 3.566077 -0.684418 -5.353320 2.619083 -0.179660 0.139190 0.055570 -4.304864 -0.070293 -7.716396 9.846666 7.532162 3.292620 -1.175721 7.789598 -4.508412 1.308831 -6.305005 -6.695157 -13.980179 7.521034 40.737412 0.461850 4.192860 2.891940 -32.191203 3.717289 -0.341680 -54.627493 11.346715 -8.877238 -6.915306 -9.120075 -0.698356 -3.801206 2.781749 0.165820 0.014060 -0.009030 0.021400 28.929282 3.977945 4.870004 52.516675 -7.453450 -8.182901 8.889435 12.216594 -0.064522 2.689267 -1.128535 -0.086490 0.033150 0.090170 -0.009760 
